<svg xmlns="http://www.w3.org/2000/svg" width="720" height="900" viewBox="0 0 720 900" fill="none">
  <path d="M283 109h154l27 111 86 72-76 459-115 45-115-45-74-459 86-72 27-111Z" fill="#443066"/>
  <path d="M282 112c12 72 38 129 78 171 40-42 66-99 78-171l29 109-74 460-33 81-33-81-74-460 29-109Z" fill="#B7A4FF"/>
  <path d="M251 222c54 72 113 111 177 0" stroke="#FFF8F4" stroke-opacity=".86" stroke-width="18" stroke-linecap="round"/>
  <path d="M225 366c92 36 181 36 267 0" stroke="#FF73A6" stroke-width="16" stroke-linecap="round"/>
  <path d="M223 502c88 29 179 29 274 0" stroke="#E9EEF3" stroke-opacity=".58" stroke-width="10" stroke-linecap="round"/>
  <path d="M360 282v477" stroke="#171316" stroke-opacity=".14" stroke-width="8"/>
  <circle cx="286" cy="169" r="10" fill="#FFF8F4"/>
  <circle cx="438" cy="169" r="10" fill="#FFF8F4"/>
  <circle cx="486" cy="318" r="8" fill="#FFF8F4"/>
  <circle cx="245" cy="596" r="8" fill="#FFF8F4"/>
</svg>
