<svg xmlns="http://www.w3.org/2000/svg" width="720" height="900" viewBox="0 0 720 900" fill="none">
  <path d="M294 104h132l41 118 98 78-38 431-169 58-166-58-37-431 96-78 43-118Z" fill="#F7B267"/>
  <path d="M292 107c26 108 50 203 68 285 18-82 42-177 68-285l36 93c-18 125-46 250-84 374l-20 67-20-67c-38-124-66-249-84-374l36-93Z" fill="#FFF8F4"/>
  <path d="M251 222c106 33 205 90 297 171l-36 137c-93-103-203-171-328-203l67-105Z" fill="#B83254" opacity=".9"/>
  <path d="M188 310c112 18 224 80 335 187l-10 118c-100-100-205-160-315-181l-10-124Z" fill="#FF73A6" opacity=".72"/>
  <path d="M230 687c90 32 174 32 255 0" stroke="#7A2437" stroke-width="16" stroke-linecap="round"/>
  <path d="M309 126h102l-51 139-51-139Z" fill="#F7C7D9"/>
  <circle cx="257" cy="238" r="14" fill="#FFE4A3"/>
  <circle cx="493" cy="407" r="10" fill="#FFE4A3"/>
  <circle cx="407" cy="566" r="12" fill="#FFE4A3"/>
</svg>
